<?xml version="1.0" encoding="UTF-8"?>
<svg id="Layer_1" xmlns="http://www.w3.org/2000/svg" version="1.1" viewBox="0 0 678.4 114.7">
  <!-- Generator: Adobe Illustrator 30.3.0, SVG Export Plug-In . SVG Version: 2.1.3 Build 182)  -->
  <defs>
    <style>
      .st0 {
        fill: #702f19;
      }

      .st1 {
        isolation: isolate;
      }

      .st2, .st3 {
        fill: #335b72;
      }

      .st3 {
        fill-rule: evenodd;
      }
    </style>
  </defs>
  <g class="st1">
    <g class="st1">
      <path class="st0" d="M181.6,32.3l-4.5-14.3h-4.3v-1.4h23.3v1.4h-4.4l11.2,35.5,9-35.5h-7.6v-1.4h15v1.4h-5l-13.8,51.8h-6.7l-11.1-33.9-9.8,33.9h-6.5l-18.9-51.8h-3.5v-1.4h24.4v1.4h-5.3l12.2,35.9,6.2-21.6Z"/>
    </g>
    <g class="st1">
      <path class="st0" d="M234.4,32.6c12.6,0,18.6,5.9,18.6,18.1s-5.7,19.1-19.1,19.1-19-6.8-19-18.5,7.4-18.8,19.4-18.8ZM238.6,47.9c0-8.1-.2-14-4.4-14s-4.8,5.9-4.8,14.3v5.9c0,8.7.1,14.3,4.7,14.3s4.5-4.4,4.5-14.2v-6.4Z"/>
      <path class="st0" d="M275.2,32.6c12.6,0,18.6,5.9,18.6,18.1s-5.7,19.1-19.1,19.1-19-6.8-19-18.5,7.4-18.8,19.4-18.8ZM279.4,47.9c0-8.1-.2-14-4.4-14s-4.8,5.9-4.8,14.3v5.9c0,8.7.1,14.3,4.7,14.3s4.5-4.4,4.5-14.2v-6.4Z"/>
      <path class="st0" d="M320.6,63.8c-1.6,3.8-4.5,6-10.4,6-8.3,0-13.6-5.9-13.6-18.5s5.3-18.7,14.9-18.7,7.4,1.3,8.7,3.7V14.2h-4.6v-1.4h18.8v54.9h3.7v1.4h-16.7l-.8-5.3ZM320.4,58.9v-16.4c0-4.1-1.6-7.7-4.9-7.7s-4.4,4.4-4.4,14.9v3.9c0,10.6.9,13.1,4.1,13.1s5.2-2.1,5.2-7.7Z"/>
      <path class="st0" d="M377.5,16.6v1.4h-4.1v49.7h4.1v1.4h-22.9v-1.4h4.1V18h-4.1v-1.4h22.9Z"/>
    </g>
    <g class="st1">
      <path class="st0" d="M398.4,33.4v6.9c1.3-3.8,3.8-7.7,11.2-7.7s11.6,3.5,11.6,12.5v22.6h4.2v1.4h-21.2v-1.4h3.1v-24.4c0-6.4-.9-7.1-2.8-7.1-3.2,0-6.1,4.7-6.1,10.8v20.7h3.2v1.4h-21.3v-1.4h4.1v-33h-4.1v-1.4h18.1Z"/>
    </g>
    <g class="st1">
      <path class="st0" d="M429.7,34.7h-4.1v-1.4h4.1v-9.7l14-3.5v13.1h9.8v1.4h-9.8v25.3c0,4.4.7,6.8,3.3,6.8s5.9-3.3,6.5-8.4l1.3.2c-.7,5.9-3.2,11.3-12.3,11.3s-12.8-2.2-12.8-11.5v-23.6Z"/>
      <path class="st0" d="M475.2,32.6c11.8,0,16.8,5.9,16.4,17.1h-21.2v2.9c0,8.9,1.6,14.9,8.9,14.9s9.3-3.5,11-9.3l1.4.2c-1.7,6.5-5.6,11.4-16.3,11.4s-19.4-7.7-19.4-18.5,8.9-18.7,19.3-18.7ZM478.2,48.2v-3.7c0-7.9-.6-10.5-3.7-10.5s-4.1,2.6-4.1,10.5v3.7h7.7Z"/>
      <path class="st0" d="M512.3,47.6v20.1h5.3v1.4h-23.4v-1.4h4.1v-33h-4.1v-1.4h18.1v7.2c1.4-5.3,5.6-8,10.1-8s8,2.3,8,8-2.2,7.1-6.3,7.1-7.4-3.2-5.9-8.5h2.7c1.5-3.1,0-3.8-1.6-3.8-3.6,0-7,5.4-7,12.2Z"/>
      <path class="st0" d="M549.4,33.4v34.4h4.2v1.4h-22.3v-1.4h4.1v-33h-4.4v-1.4h18.4ZM542.7,14.2c4.7,0,7.4,2.3,7.4,6.9s-2.2,7.1-7.6,7.1-7.5-3.8-7.5-7,2-7,7.7-7Z"/>
      <path class="st0" d="M575.2,32.6c12.6,0,18.6,5.9,18.6,18.1s-5.7,19.1-19.1,19.1-19-6.8-19-18.5,7.4-18.8,19.4-18.8ZM579.4,47.9c0-8.1-.2-14-4.4-14s-4.8,5.9-4.8,14.3v5.9c0,8.7.1,14.3,4.7,14.3s4.5-4.4,4.5-14.2v-6.4Z"/>
    </g>
    <g class="st1">
      <path class="st0" d="M614,47.6v20.1h5.3v1.4h-23.4v-1.4h4.1v-33h-4.1v-1.4h18.1v7.2c1.4-5.3,5.6-8,10.1-8s8,2.3,8,8-2.2,7.1-6.3,7.1-7.4-3.2-5.9-8.5h2.7c1.5-3.1,0-3.8-1.6-3.8-3.6,0-7,5.4-7,12.2Z"/>
    </g>
    <g class="st1">
      <path class="st0" d="M633.8,56.4h.9c2.8,9.2,7.4,11.8,13.5,11.8s7.7-2,7.7-4.9-3.7-4.1-9.4-5.7c-6-1.7-12.7-4-12.7-12.3s5.3-12.7,13.2-12.7,5.6.8,7.6,1.7c.9.4,1.2.6,2.1.6s1.7-.6,2.6-2.5h.8v11.5h-.9c-2.7-6.9-6.5-9.8-11.9-9.8s-7,2-7,4.4c0,3.5,4.5,4.3,9.5,5.6,5.9,1.6,12.5,4,12.5,12.8s-5.6,12.8-14,12.8-6.2-.8-9-2.2c-.5-.3-1.1-.6-1.4-.6-1,0-2,.7-3.2,2.8h-.9v-13.4Z"/>
    </g>
  </g>
  <g>
    <path class="st0" d="M112.8,40.7h0c2.7.9,6.5-1.3,8.5-.9-1.1.9-3,1.6-5.6,2.2,8.6,2.1,8.4-3.2,11.6-5.2-6.5-2.9-11.4-1.6-14.5,3.8Z"/>
    <path class="st0" d="M120.5,44.3c1.1,2.6,5.3,3.9,6.3,5.7h0c-1.4-.3-3.2-1.2-5.4-2.6,4.3,7.8,8,4.1,11.7,5.2-2.3-6.8-6.4-9.5-12.6-8.2Z"/>
    <polygon class="st0" points="120.5 44.3 120.5 44.3 120.5 44.3 120.5 44.3"/>
    <path class="st0" d="M120.1,29.9c-.4.4-1.1,1-2.1,1.5,3.7,0,3.1-2.2,4.2-3.3-2.9-.5-4.8.5-5.5,3.1,1.2.1,2.5-1.2,3.4-1.2h0Z"/>
    <path class="st0" d="M137,72.7c-4-2.8-7.4-2.6-10.2.6,1.7,1,4.5,0,5.8.5h0c-.9.4-2.2.7-4,.7,5.5,2.6,6-1,8.5-1.8Z"/>
    <path class="st0" d="M97.8,44.1c-4.1-1.8-7.1-1-9,2.4h0c1.7.6,4-.8,5.2-.5-.7.5-1.8,1-3.5,1.4,5.4,1.3,5.2-2,7.2-3.2Z"/>
    <path class="st0" d="M101.3,37.1c-4.1-1.8-7.1-1-9,2.4h0c1.7.6,4-.8,5.2-.5-.7.5-1.8,1-3.5,1.4,5.4,1.3,5.2-2,7.2-3.2Z"/>
    <path class="st0" d="M98.3,25.8c-.4,1-1.4,2.2-2.8,3.6,6.5-2,4.3-5.4,5.6-8-5.4.7-8.1,3.4-8,8.2,2.1-.5,3.7-3.4,5.2-3.9Z"/>
    <path class="st0" d="M99.5,14.4s0,0,0,0h0s0,0,0,0c-.1.9-.6,2.1-1.4,3.5,4.6-3.1,2.1-5.2,2.6-7.5-4.1,1.8-5.6,4.5-4.4,8.2,1.6-.8,2.2-3.5,3.2-4.2Z"/>
    <path class="st0" d="M105.1,31.2h0c0,.9-.5,2.1-1.4,3.5,4.6-3.1,2.1-5.2,2.6-7.5-4.1,1.8-5.6,4.5-4.4,8.2,1.5-.8,2.1-3.5,3.2-4.2Z"/>
    <polygon class="st0" points="110.2 32.6 110.2 32.6 110.2 32.6 110.2 32.6"/>
    <path class="st0" d="M110.2,32.6c1.6-.8,2.2-3.5,3.2-4.2,0,.9-.5,2.1-1.4,3.5,4.6-3.1,2.1-5.2,2.6-7.5-4.1,1.7-5.6,4.5-4.4,8.2Z"/>
    <path class="st0" d="M109.3,20.9c0,.6-.1,1.5-.5,2.7,2.8-2.9.7-4,.7-5.8-2.7,1.9-3.3,4.1-1.9,6.6,1-.8,1-2.8,1.7-3.5Z"/>
    <path class="st0" d="M119,77.8h0c1.2,2.5,5.5,3.7,6.6,5.3,0,0,0,0,0,0h0s0,0,0,0c-1.4-.2-3.2-1-5.5-2.4,4.6,7.6,8.2,3.7,11.9,4.6-2.6-6.7-6.9-9.2-13-7.5Z"/>
    <path class="st0" d="M53.1,67.5c.3-3.7-1.7-5.9-5.8-6.6.9,2-.9,4.5,4,6.3h0c-1-1.1-1.7-2.1-2-2.9,0,0,0,0,0,0,0,0,0,0,0,0h0s0,0,0,0h0s0,0,0,0c1.1.5,2.2,2.8,3.8,3.2Z"/>
    <path class="st0" d="M109.8,59.9c-4-2.8-7.4-2.6-10.2.6,1.7,1,4.5,0,5.8.5-.9.4-2.2.7-4,.7,5.5,2.6,6-1,8.5-1.9Z"/>
    <path class="st0" d="M103.3,52s0,0,0,0c0,0,0,0,0,0h0Z"/>
    <path class="st0" d="M117.8,48.1c-6.5-2.9-11.4-1.6-14.5,3.8,2.7.9,6.4-1.3,8.4-.9-1.1.9-3,1.6-5.6,2.2,8.6,2.1,8.4-3.2,11.6-5.2Z"/>
    <path class="st0" d="M123.8,67.2c8.7-1.5,6.5-6.2,8.7-9.3-7.1,0-11.1,3-11.8,9.2,2.8-.2,5.4-3.7,7.4-4.1h0s0,0,0,0h0s0,0,0,0c-.7,1.2-2.2,2.6-4.3,4.2Z"/>
    <path class="st0" d="M42.8,78.7s0,0,0,0c0,0,0,0,0,0h0Z"/>
    <path class="st0" d="M44.8,78.1c-1.6-4-4.7-5.3-9.4-4,2,1.6,1.3,5.2,7.3,4.6-1.7-.7-2.9-1.4-3.6-2.1h0c1.4,0,3.7,1.8,5.6,1.4Z"/>
    <path class="st0" d="M39.6,91.6h0c.1,0,.2,0,.3-.2-.1,0-.2,0-.3,0h0Z"/>
    <path class="st0" d="M115.3,90.8c.9,2.7,4.9,4.4,5.8,6.2-1.4-.4-3.1-1.4-5.1-3.2,3.4,8.1,7.5,4.8,11.1,6.2-1.6-7-5.5-10.1-11.7-9.3Z"/>
    <path class="st0" d="M101.8,89.3h0c.9,2.7,4.9,4.4,5.8,6.2-1.4-.4-3.1-1.5-5.1-3.2,3.4,8.1,7.5,4.8,11.1,6.2-1.6-7-5.5-10.1-11.7-9.3Z"/>
    <path class="st0" d="M91.5,23h0c.6-1.1-.1-3,.2-3.9h0c.3.5.5,1.5.6,2.7,1.6-3.7-.8-4-1.5-5.7-1.8,2.8-1.6,5,.7,6.9Z"/>
    <path class="st0" d="M116.3,76.9c-5.8-4.2-10.8-3.9-15,.9,2.4,1.4,6.5,0,8.4.8,0,0,0,0,0,0,0,0,0,0,0,0,0,0,0,0,0,0h0s0,0,0,0c0,0,0,0,0,0,0,0,0,0,0,0-1.3.6-3.2.9-5.9,1,8,3.8,8.9-1.4,12.5-2.7Z"/>
    <path class="st0" d="M123.2,71c-4-2.8-7.4-2.6-10.2.6,1.7,1,4.5,0,5.8.5-.9.4-2.2.7-4.1.7,5.5,2.6,6-1,8.5-1.9Z"/>
    <path class="st0" d="M65,49.1c1.3-6.5-2.7-6.2-4.3-8.5-2,5-.8,8.6,3.4,10.7.6-2.1-1.2-4.8-1-6.3.7.8,1.3,2.2,1.9,4.1Z"/>
    <polygon class="st0" points="60.7 40.5 60.7 40.5 60.7 40.5 60.7 40.5"/>
    <path class="st0" d="M61.3,13.2c.3,1.1.3,2.6,0,4.6,3.8-5.6,0-6.8-.6-9.7-3.8,3.9-4.2,7.7-1.1,11.4,1.3-1.7.8-5,1.6-6.3Z"/>
    <path class="st0" d="M45.1,22.7h0c-1-1.3-1.6-2.4-1.9-3.2,1.1.5,2.1,3.1,3.7,3.6.6-3.8-1.3-6.3-5.5-7.4.8,2.2-1.3,4.6,3.6,6.9Z"/>
    <path class="st0" d="M52,14.5h0c.3,1.1.4,2.6.2,4.6,3.6-5.7-.2-6.9-.8-9.7-3.7,4-4,7.8-.9,11.4,1.3-1.7.7-5,1.5-6.3Z"/>
    <path class="st0" d="M50.3,30.3h0c1.9-1,2.8-4.2,4-5.1h0c-.2,1.1-.8,2.5-1.8,4.2,5.7-3.6,2.8-6.3,3.4-9.1-5.1,2-7,5.3-5.7,9.9Z"/>
    <path class="st0" d="M59.8,53.8c.9-4.7-1.9-4.5-3.1-6.2-1.4,3.6-.6,6.2,2.4,7.8.5-1.5-.9-3.5-.7-4.6h0c.5.6.9,1.6,1.3,3Z"/>
    <path class="st0" d="M54.4,38.1c1.9-1,2.8-4.2,4-5.1h0s0,0,0,0c-.2,1.1-.8,2.5-1.8,4.2,5.7-3.6,2.8-6.3,3.4-9.1-5.1,2-7,5.3-5.7,9.9Z"/>
    <path class="st0" d="M62.6,28.2h0c1.1-1.3.6-3.9,1.3-4.9.2.8.2,2,0,3.6,2.9-4.3,0-5.3-.5-7.5-3,3-3.3,5.9-.9,8.8Z"/>
    <path class="st0" d="M27.5,56.7h0c-2.8-.2-4.9-.7-6.2-1.3,2-.8,6.3.9,8.9-.5-4.2-5.1-9.4-5.6-15.7-1.5,3.7,1.5,4.4,7,13,3.4Z"/>
    <path class="st0" d="M38.5,28.2h0c-1.1-1.5-1.9-2.7-2.1-3.7,0,0,0,0,0,0,0,0,0,0,0,0h0s0,0,0,0h0s0,0,0,0c1.3.7,2.4,3.6,4.3,4.2.7-4.5-1.5-7.3-6.4-8.6.9,2.5-1.5,5.4,4.2,8.1Z"/>
    <path class="st0" d="M30.9,36.3c-1-1.3-1.6-2.4-1.8-3.2h0c1.1.5,2.1,3.1,3.7,3.6.6-3.8-1.3-6.3-5.5-7.4.8,2.2-1.3,4.6,3.6,6.9Z"/>
    <path class="st0" d="M30.9,36.3s0,0,0,0c0,0,0,0,0,0h0Z"/>
    <path class="st0" d="M30.4,46.1h0c-2.4-1.5-4-2.8-4.9-4,2.1.2,5.2,3.7,8.2,3.6-1.4-6.5-5.8-9.3-13.3-8.5,2.6,3,.7,8.2,10,8.9Z"/>
    <path class="st0" d="M81.6,13.1h0c.8,1.9-.8,6.2.6,8.7,4.9-4.2,5.4-9.3,1.2-15.4-1.4,3.6-6.8,4.4-3.1,12.7.2-2.8.5-4.8,1.2-6.1Z"/>
    <path class="st0" d="M72.2,15.7h0c.5-2-1.4-4.6-1.3-6,0,0,0,0,0,0h0s0,0,0,0c.7.8,1.4,2.1,2,3.9.9-6.4-3-5.9-4.6-8.1-1.6,4.9-.3,8.4,3.9,10.2Z"/>
    <path class="st0" d="M34,94.9h0c-4.3-.2-6.8,2.1-7.5,7,2.3-1.1,5.3.9,7.2-4.8-1.3,1.3-2.4,2.1-3.3,2.4.5-1.3,3.1-2.7,3.6-4.5Z"/>
    <path class="st0" d="M69.7,20.3c.4.5.8,1.3,1.1,2.4.8-3.7-1.5-3.5-2.4-4.9-1.1,2.9-.5,4.9,1.9,6.2.3-1.2-.7-2.8-.5-3.6h0Z"/>
    <path class="st0" d="M77.5,42.7c1.3-6.5-2.7-6.2-4.3-8.5-2,5-.8,8.6,3.4,10.7.6-2.1-1.2-4.8-1-6.3.7.8,1.3,2.2,1.8,4.1Z"/>
    <polygon class="st0" points="73.2 34.1 73.2 34.1 73.2 34.1 73.2 34.1"/>
    <path class="st0" d="M85.7,30.9c1-.8,1-2.8,1.6-3.5,0,.6,0,1.5-.4,2.7,2.8-2.9.7-4,.7-5.8-2.7,1.9-3.3,4.1-1.9,6.6Z"/>
    <path class="st0" d="M83,34.5h0c0-6.5-3.5-10.2-10.8-11,1.8,3.5-1.1,8,7.6,10.7-2-1.9-3.2-3.6-3.8-4.9,2,.7,4.1,4.6,7,5.2Z"/>
    <path class="st0" d="M47.7,97.1s0,0,0,0c0,0,0,0,0,0h0Z"/>
    <path class="st0" d="M36.5,99.5c3.4-.3,6.1,3.6,11.3-2.5-2.2.9-3.9,1.4-5.2,1.4h0s0,0,0,0h0c1.3-1.3,5.1-1.8,6.6-3.8-5.2-2.3-9.4-.7-12.6,5Z"/>
    <path class="st0" d="M28.8,48.9h0c1.8,1.5,1.2,4.7,6.6,4.2-1.5-.6-2.5-1.2-3.2-1.8h0s0,0,0,0c1.2,0,3.3,1.6,5,1.3-1.4-3.6-4.3-4.8-8.5-3.6Z"/>
    <path class="st0" d="M43.8,63.4c-2-5.1-6-6.8-11.9-5.1h0c2.5,2.1,1.7,6.6,9.3,5.9-2.1-.8-3.6-1.7-4.5-2.6h0s0,0,0,0c1.8,0,4.7,2.3,7.1,1.8Z"/>
    <path class="st0" d="M45.7,46.9c.6-3.8-1.3-6.3-5.5-7.4h0c.8,2.2-1.3,4.6,3.6,6.9-1-1.3-1.6-2.4-1.8-3.2h0c1.1.5,2.1,3,3.7,3.6Z"/>
    <path class="st0" d="M42.7,37.7h0c-1-1.3-1.6-2.4-1.8-3.2h0c1.1.5,2.1,3.1,3.7,3.6.6-3.8-1.3-6.3-5.5-7.4.8,2.2-1.3,4.6,3.6,6.9Z"/>
    <path class="st0" d="M19.2,85.6c3.7,1.5,4.4,7,13,3.4-2.8-.2-4.9-.7-6.2-1.3,2-.8,6.3.9,8.9-.5-4.2-5.1-9.4-5.6-15.7-1.5Z"/>
    <path class="st0" d="M19.2,85.6s0,0,0,0c0,0,0,0,0,0h0Z"/>
    <path class="st0" d="M27.9,75.9c-2.8-.2-4.9-.6-6.2-1.3,2-.8,6.3.9,8.9-.5-4.2-5.1-9.4-5.6-15.7-1.5,3.7,1.5,4.4,7,13,3.4Z"/>
    <polygon class="st0" points="14.9 72.6 14.9 72.6 14.9 72.6 14.9 72.6"/>
    <path class="st0" d="M99,88.6c6.3-2.2,14.9-2,25.8.5h0c-3.9-4.9-12.5-7.1-25.8-6.7v-9.8s0,0,0,0c.9-.5,1.9-1,3-1.4,13.2-4.2,20.7-9.3,22.8-15.4-9,6.7-18.5,9.5-28.5,8.7,5.5-13.5,12-23.7,19.7-30.5-10.3,5.9-18.7,15.6-25.2,29.2,0,0,0,0,0,0h0s-4.3-3.6-4.3-3.6c1-1,1.7-2.6,2.5-3-.2.9-.8,2-1.8,3.3,4.9-2.5,2.8-4.9,3.5-7.1-3.6,1.1-5.4,3-5.5,5.8h0s-1.4-1.2-1.4-1.2c0,0,0,0,0,0,1.8-8.1,4.9-16.3,9.3-24.7h0c-5.1,2.3-9.5,8.9-13.3,20.1-7.9-9.7-12.2-17.8-12.8-24.4-2.5,7.5-.7,15.4,5.2,23.9l-4.7,3.8c-.2-.2-.4-.4-.6-.7-.2.6-.4,1.1-.5,1.6h0s-4.6,3.8-4.6,3.8c-2.7-2.3-5.7-4.4-9.2-6.5,1.5-11.7-.6-20.9-6.2-27.4,3,13.2,3.2,21.5.5,25.1-5.5-2.8-9.1-7.1-10.9-13-1.1,5.8,1.9,11.3,8.9,16.5,3.3,2,7.1,5.3,11.2,9.9h0s-3.9,3.2-3.9,3.2h0c-1.2,0-2.5,0-3.9.2-6.5.2-12.7-1.5-18.6-4.9,2.8,5.8,9.8,9.5,21,11.3v1.4c-.3,0-.6-.1-.9-.2.6,1.3,0,2.8.9,4.2v2.6c-5.9-2-11.6-3-17-3.1,6.2,1,11.7,4,16.3,9.2-3.6,0-6.8.8-9.7,2.3,3.9-.8,7.4-1.1,10.5-1.1v9c-.2.7-.4,1.4-.5,2.2.2,0,.3-.1.5-.2v.2c0,1.2,1,2.1,2.1,2.1s2.1-1,2.1-2.1h0s0,0,0,0v-1.1h0v-2.5h0v-3h0v-4.2h0v-15.1h0v-3.7l2.8-2.2,1.2-1,6-4.8,1.6-1.3h0s0,0,0,0l2.8-2.3s0,0,0,0h0s.1-.1.1-.1l1.3-1s0,0,0,0h0s4-3.3,4-3.3h0s0,0,0,0l6.6,5.4,1.5,1.2,6.1,5h0s0,0,0,0l5.8,4.8v10.6s0,0,0,0v8s0,0,0,0h0v2.1h0v1.5h0v1.2h0v1h0v5c0,1.2,1,2.1,2.1,2.1s2.1-1,2.1-2.1v-2.2c.8,0,1.6.1,2.3.5-.3-2.4-1.1-4.1-2.3-5.3v-5.9Z"/>
  </g>
  <path class="st3" d="M81.7,77.9s0,0,0,0c-1.3-2.2-3.7-3.7-6.4-3.9,0,0,0,0,0,0,0,0,0,0,0,0-.2,0-.4,0-.6,0-.9,0-1.8.2-2.6.5-3.2,1.1-5.5,4.2-5.5,7.8v22.3h16.4v-22.3h0c0-1.6-.4-3-1.2-4.3Z"/>
  <g>
    <path class="st0" d="M306.2,92.4v-2.8c0-.3,0-.5,0-.8h-139.5c-1.2,0-2.2,1-2.2,2.2s1,2.2,2.2,2.2h139.5c0-.3,0-.5,0-.8h0Z"/>
    <path class="st0" d="M660.2,88.8h-141.3c0,.3,0,.5,0,.8v2.8c0,.3,0,.5,0,.8h141.3c1.2,0,2.2-1,2.2-2.2s-1-2.2-2.2-2.2h0Z"/>
  </g>
  <g class="st1">
    <g class="st1">
      <path class="st2" d="M329.6,76.4h.2l.2.2.2-.2h1.1c2.1,0,4,1.4,5.7,4.3v1.7c0,.6-.2,1.2-.7,1.7l-.2-.2h-.5v.2h.5l-1.8,2.8-1.2.4v.6c6.3,1.9,10.2,4.4,11.9,7.5v.4l-.7,2.1h-1.2c-.8,1.1-4.6,2.6-11.5,4.5-3.8.6-7.1.9-9.8.9h-.2c-1.6,0-2.7-1.1-3.4-3.2.3-.6.8-1.2,1.6-1.7h.2l.5,1.9.2-.2h.2c.3,0,.5.2.5.6h.5l1.1.2,6.9-.9.2.2c0-.3,2-.8,6-1.7,3.7-1.5,5.8-2.6,6.2-3.4v-.4c-2.2-2.2-6.5-4-13.1-5.6l-.2-.2c.2,2.2.6,4.7,1.4,7.5-.6.6-1.2.9-1.8.9h-.7c-3.9-1.7-6.4-3.9-7.6-6.6-.9-2-1.4-3.8-1.4-5.3,0-4.5,3.5-7.5,10.5-9ZM325.1,80.7l-.9-.2c-2.5,1.7-3.7,3.3-3.7,4.7.6,5.4,2.8,8.5,6.6,9.4h.2l-.7-4.9v-2.6l.5-7.5-2.1,1.1ZM328.9,79c0,.7.4,1.3,1.1,1.9-.2,2.2-.5,3.8-.9,4.9l.5.9c3.4-1.9,5.1-3.6,5.1-5.1v-1.1c-.7-1.1-1.8-1.7-3.2-1.7h-1.4l-1.1.2Z"/>
      <path class="st2" d="M346.6,89.7c.8,0,1.3.4,1.8,1.2l-.2.7.4.5-.9,4.4.4,1.2h.7c3.3-1.3,5-3.1,5-5.4l1.1-1.5h.9l.9,1v1.2c0,1.2-.6,3.4-1.8,6.4l-.4.5.2.7-1.5,4.2.2.2v.2l-1.3,3.2c-.7,1.2-1.4,1.4-2.1.4l-.2-2.1.5-2.2,1.8-5.5h-.2l-2.8.5c0,.3.2.5.7.5l.2.2v.2h-.4l-1.1-.7h-1.3l-1.8-2.2-.4-3c.6-3.5,1.2-5.2,1.8-5.2Z"/>
      <path class="st2" d="M384.6,76.2h.9l1.3,1.3v.2l-.7.6.2.2v.2c0,.7-.5,1.4-1.5,2.3-1.4,2.2-2.1,5.2-2.1,9l.2,2.7h-.2l1.3,5.2h-.2l.4,1-.2.2c.3,0,.6,1.3.9,4,0,1.8-.6,3-1.7,3.6v.2l-.2-.2h-.2c-1.7.8-3,1.2-3.9,1.2h-1.3v.4h-.4v-.6l-.9.2-.9-.2-.2.2h-.2c-3.3-1.1-5-2.4-5-4v-.8c1-1.8,2.8-3.1,5.2-4l.2.2v.2l-1.7,1.7.2.8-.9,1.2c0,1.7,1.2,2.5,3.5,2.5h.4c3.5-.4,5.2-1.5,5.2-3.3v-.4c-1.3-6.6-1.9-11.3-1.9-14s.2-3.2.7-5l-.2-.6.4-.4v-.4l-7.3,3.6v.2h.4v.4c-.5,0-1.1.4-1.9,1.2h-.6v-.4h.6c0-.3-.6-.8-1.9-1.5l-.4-1.5,3.5-.8c5.1-2.1,8.9-4.3,11.4-6.7Z"/>
      <path class="st2" d="M390.9,89.4c5.1,1.2,7.7,3.7,7.7,7.4-2.2,2.2-4.1,3.3-5.6,3.3s-3.8-1.4-5-4.1c-.4,0-.7-1.1-.9-3.3,0-2.2,1.3-3.3,3.8-3.3ZM389.8,93l1,3-1-1.8c.9,2.2,1.9,3.6,3,4,2.2-.9,3.3-1.7,3.3-2.5-.3-1.9-1.8-3.1-4.6-3.7-1.1,0-1.6.3-1.6,1Z"/>
      <path class="st2" d="M403.2,76.3c.8,0,1.5.7,2.1,2.1v.6c-2.3,2-3.5,6.6-3.7,13.7v2.1l.4.6c2.9-3.8,4.8-5.7,5.6-5.7,2.4,0,4.7,3.4,7.1,10.2.9,1.4,2.2,2.4,4.1,3v.3l-1.5,1.5h-.9c-2.1,0-4.5-3.6-7.3-10.7l-1.1-.6c-.5,0-2.3,2.1-5.4,6.3l-1.1.3c-1.9-1-2.8-3.7-2.8-8.1.7-7.1,1.7-12.3,3.2-15.5h1.1Z"/>
      <path class="st2" d="M415.2,89.1h.7c.8.6,1.1,1.3,1.1,2l-.2.9.2,3.9h.2c1.5-3.5,2.8-5.2,4-5.2s1.8,2,2.6,6.1c.6,1.3,1.3,2,2.1,2l.8-.2.7.7v.9c0,.5-.7.9-2.1,1.1h-.7c-.9-.5-1.7-1.3-2.5-2.6-.4-.8-.9-2.3-1.3-4.4-.2,0-.6.8-1.3,2.4-1.5,2.5-2.6,3.7-3.4,3.7s-1.4-1.3-1.5-3.9v-6.5l.6-.7Z"/>
      <path class="st2" d="M456.8,76.1c3.3,0,5,1.4,5,4.2-.3,0-.4.3-.4.8l-.2.2h-.6v-1.2c-.9-1.1-2.1-1.6-3.6-1.6-3.3,0-6.4,1.1-9.2,3.4v.2l.6,1c-.4,1.9-.8,3.1-1.2,3.7l.2.2v.2l-.2.6h-.4v-1.2h-.2l-.4,2h.4v-.4h.2l.6.4,7.2-1.2.6.2c0-.4,1-.6,3-.6l1.2.2.4-.4h3.4l.2.2.2-.2h1.4l.4.4.2-.2h.2l.4.4c0,.3-.7.5-2,.8v-.2l-2.4.4-.2-.2v-.2l-1.4.6-.6-.2v.2l-.2-.2h-.2l-2.4.4h-.4c0,.3-.7.6-2,.8h-.2l-.6-.4-1,.8-.2-.2c-4,.7-6,1.4-6,2.2l-.2,1.8.6,5.3-.2.2h-.2l-.2-.2c0,.5-.3.9-.8,1.2h-.2c-.7,0-1.1-2.4-1.4-7.3l.2-.6-.6-.2-1.4.8h-1c-1.2-.2-1.8-.8-1.8-1.8v-.4c0-.5,1.7-.9,5.2-1.4l1.2-6.5c-.7-.4-1-.9-1-1.6,0-1.3,2.9-2.9,8.6-4.7l3.6-.4Z"/>
      <path class="st2" d="M466.9,76.1c.5,0,.9.8,1.3,2.4-1,3.8-1.6,7-1.6,9.4s.8,7.2,2.3,12l-.3.3h-.8c-1.7,0-2.8-1.6-3.3-4.7-.7-2.5-1-5.1-1-7.6.6-7.9,1.2-11.8,1.8-11.8h1.6Z"/>
      <path class="st2" d="M479.1,88.8l1.4.5c0,1.3-.3,3-1.1,5.1l-.2,1.5c0,1.4.7,2.7,1.9,3.8v1.1c-.4,0-.8.1-1.2.1-.9,0-1.9-.9-3.2-2.7l-.3-1.6v-.5c0,0-.3,0-.3,0-2.8,2.6-4.9,4-6.4,4.1-.8-.1-1.4-.4-1.6-.8l-.2-1c.9-6.2,4.6-9.3,11-9.5ZM470.9,97.3l1-.8c3.3-2.6,5.2-4.5,5.6-5.6h-.2c-3.8,1.3-5.9,3.4-6.5,6.4Z"/>
      <path class="st2" d="M490.5,88.4h.5c.2,0,.3.2.3.5-.6,3.5-2.2,7-4.8,10.5l-1.4.7h-.2c-2.6-2.7-3.9-5.7-3.9-8.9l.5-.2c.9,0,1.5,1.2,1.9,3.7.7,1.5,1.2,2.3,1.5,2.3,1-.5,2.6-3.2,4.6-8l.9-.7Z"/>
      <path class="st2" d="M492.2,77h.8c1.2,0,1.8.6,1.8,1.9v.8c-.2.5-.7.8-1.6.8s-1.2-.6-1.8-1.8c.2-1.1.4-1.6.8-1.6ZM492.2,89.3h1.1c.3.1.7.7,1.1,1.9l-.2,3.7c0,1.2.4,2.6,1.3,4v.5l-.7.8h-.7c-1.8,0-2.6-1.8-2.6-5.3v-2.1c0-2.3.2-3.4.7-3.4Z"/>
      <path class="st2" d="M496.2,89.1h.7c.8.6,1.1,1.3,1.1,2l-.2.9.2,3.9h.2c1.5-3.5,2.8-5.2,4-5.2s1.8,2,2.6,6.1c.6,1.3,1.3,2,2.1,2l.8-.2.7.7v.9c0,.5-.7.9-2.1,1.1h-.7c-.9-.5-1.7-1.3-2.5-2.6-.4-.8-.9-2.3-1.3-4.4-.2,0-.6.8-1.3,2.4-1.5,2.5-2.6,3.7-3.4,3.7s-1.4-1.3-1.5-3.9v-6.5l.6-.7Z"/>
    </g>
  </g>
</svg>