<?xml version="1.0" encoding="UTF-8"?>
<svg id="Layer_1" xmlns="http://www.w3.org/2000/svg" version="1.1" viewBox="0 0 264.3 143.8">
  <!-- Generator: Adobe Illustrator 30.3.0, SVG Export Plug-In . SVG Version: 2.1.3 Build 182)  -->
  <defs>
    <style>
      .st0 {
        fill: #702f19;
      }

      .st1 {
        isolation: isolate;
      }

      .st2 {
        fill: #702f18;
      }

      .st3, .st4 {
        fill: #335b72;
      }

      .st4 {
        fill-rule: evenodd;
      }
    </style>
  </defs>
  <g>
    <path class="st2" d="M62.3,133.6v-1.7c0-.2,0-.4,0-.6H1.5c-.8,0-1.5.7-1.5,1.5s.7,1.5,1.5,1.5h60.9c0-.3,0-.5,0-.8Z"/>
    <path class="st2" d="M248.1,131.4h-60.8c0,.2,0,.4,0,.6v1.7c0,.3,0,.5,0,.8h60.9c.8,0,1.5-.7,1.5-1.5s-.7-1.5-1.5-1.5h0Z"/>
  </g>
  <g class="st1">
    <g class="st1">
      <path class="st3" d="M75.6,123.8h.3c0,.1.1,0,.1,0h.7c1.2,0,2.4.8,3.4,2.5v1c0,.3-.1.7-.4,1h-.1c0-.1-.3-.1-.3-.1h0c0,.1.3.1.3.1l-1.1,1.6-.7.3v.4c3.7,1.1,6,2.6,7,4.4v.3l-.4,1.3h-.7c-.5.7-2.7,1.5-6.7,2.6-2.2.3-4.2.5-5.8.5h-.1c-.9,0-1.6-.6-2-1.9.2-.4.5-.7.9-1h.1l.3,1.1h.1c0-.1.1-.1.1-.1.2,0,.3.1.3.4h.9c0,.1,4-.4,4-.4h.1s1.2-.4,3.5-.9c2.2-.9,3.4-1.5,3.6-2v-.2c-1.3-1.3-3.8-2.4-7.7-3.3h-.1c0,1.2.4,2.6.8,4.3-.4.3-.7.5-1.1.5h-.4c-2.3-1-3.8-2.3-4.4-3.9-.5-1.2-.8-2.2-.8-3.1,0-2.6,2.1-4.4,6.2-5.3ZM72.9,126.3h-.5c-1.4.9-2.2,1.8-2.2,2.6.3,3.1,1.6,5,3.9,5.5h.1l-.4-2.9v-1.5l.3-4.4-1.2.6ZM75.2,125.3c0,.4.2.8.7,1.1-.1,1.3-.3,2.3-.5,2.9l.3.5c2-1.1,3-2.1,3-3v-.6c-.4-.7-1-1-1.9-1h-1.5Z"/>
      <path class="st3" d="M85.6,131.6c.4,0,.8.2,1,.7v.4c-.1,0,.1.3.1.3l-.5,2.6.3.7h.4c2-.8,2.9-1.8,2.9-3.2l.6-.9h.5l.5.6v.7c0,.7-.3,2-1,3.8l-.3.3v.4c.1,0-.8,2.5-.8,2.5h.1v.3l-.8,1.9c-.4.7-.8.8-1.2.2v-1.2c-.1,0,.2-1.3.2-1.3l1.1-3.2h-.1l-1.7.3c0,.2.1.3.4.3h.1v.3h-.3l-.6-.4h-.8l-1-1.3-.3-1.7c.3-2,.7-3,1-3Z"/>
      <path class="st3" d="M107.9,123.7h.5l.8.7h0c0,.1-.4.5-.4.5h.1v.2c0,.4-.3.8-.9,1.3-.8,1.3-1.3,3-1.3,5.3v1.6c.1,0,0,0,0,0l.8,3.1h-.1l.3.6h-.1c.2.1.4.9.5,2.5,0,1.1-.3,1.8-1,2.1h0c0,.1-.1,0-.1,0h-.1c-1,.5-1.8.7-2.3.7h-.8v.3h-.3v-.4h-.5c0,.1-.5,0-.5,0h-.1c0,.1-.1.1-.1.1-1.9-.6-2.9-1.4-2.9-2.3v-.5c.6-1,1.6-1.8,3-2.3h.1v.2l-1,1v.5c.1,0-.4.7-.4.7,0,1,.7,1.5,2,1.5h.2c2-.2,3-.9,3-2v-.2c-.8-3.9-1.1-6.6-1.1-8.3s.1-1.9.4-3v-.4c-.1,0,.1-.3.1-.3v-.2l-4.3,2.1h0c0,.1.3.1.3.1v.2c-.3,0-.7.2-1.1.7h-.4v-.2h.4c0-.2-.4-.5-1.1-.9l-.3-.9,2-.5c3-1.2,5.2-2.5,6.7-3.9Z"/>
      <path class="st3" d="M111.6,131.4c3,.7,4.5,2.2,4.5,4.3-1.3,1.3-2.4,2-3.3,2s-2.2-.8-2.9-2.4c-.2,0-.4-.7-.5-2,0-1.3.7-2,2.2-2ZM110.9,133.5l.6,1.8-.6-1c.5,1.3,1.1,2.1,1.8,2.3,1.3-.5,1.9-1,1.9-1.5-.2-1.1-1.1-1.8-2.7-2.2-.6,0-1,.1-1,.6Z"/>
      <path class="st3" d="M118.8,123.7c.5,0,.9.4,1.3,1.2v.3c-1.3,1.2-2.1,3.9-2.1,8.1v1.2l.3.4c1.7-2.2,2.8-3.3,3.3-3.3,1.4,0,2.8,2,4.2,6,.5.8,1.3,1.4,2.4,1.7v.2l-.9.9h-.5c-1.2,0-2.6-2.1-4.3-6.3l-.6-.4c-.3,0-1.3,1.2-3.1,3.7l-.6.2c-1.1-.6-1.6-2.2-1.6-4.7.4-4.2,1-7.2,1.9-9.1h.6Z"/>
      <path class="st3" d="M125.8,131.2h.4c.4.4.7.8.7,1.2v.5c-.1,0,0,2.3,0,2.3h.1c.9-2,1.6-3.1,2.3-3.1s1.1,1.2,1.5,3.6c.3.8.7,1.2,1.2,1.2h.5c0-.1.4.3.4.3v.5c0,.3-.4.5-1.2.6h-.4c-.5-.3-1-.8-1.4-1.5-.3-.5-.5-1.3-.8-2.6-.1,0-.4.5-.8,1.4-.9,1.4-1.5,2.2-2,2.2s-.8-.8-.9-2.3v-3.8l.3-.4Z"/>
      <path class="st3" d="M150.3,123.6c2,0,2.9.8,2.9,2.4-.2,0-.2.2-.2.5h-.1c0,.1-.4.1-.4.1v-.7c-.5-.6-1.2-.9-2.1-.9-1.9,0-3.7.7-5.4,2h0c0,.1.3.7.3.7-.2,1.1-.4,1.8-.7,2.2h.1v.6h-.3v-.7h-.1l-.2,1.2h.2v-.2h.1l.3.2,4.3-.7h.3c0-.1.6-.2,1.8-.2h.7c0,.1.2-.1.2-.1h2.1c0,.1.1,0,.1,0h.8l.2.2h.1c0-.1.1-.1.1-.1l.2.2c0,.2-.4.3-1.2.5h0c0-.1-1.4.1-1.4.1h-.1v-.2l-.8.3h-.4c0-.1,0,0,0,0h-.1c0-.1-.1-.1-.1-.1l-1.4.2h-.2c0,.2-.4.3-1.2.5h-.1l-.3-.2-.6.5h-.1c-2.4.3-3.5.7-3.5,1.2v1c-.1,0,.2,3.1.2,3.1h-.1c0,.1-.1.1-.1.1h-.1c0,.2-.2.4-.5.6h-.1c-.4,0-.7-1.4-.8-4.3v-.3c.1,0-.2-.1-.2-.1l-.8.5h-.6c-.7,0-1.1-.4-1.1-1v-.2c0-.3,1-.5,3.1-.8l.7-3.8c-.4-.2-.6-.5-.6-.9,0-.8,1.7-1.7,5.1-2.8l2.1-.2Z"/>
      <path class="st3" d="M156.2,123.6c.3,0,.6.5.8,1.4-.6,2.3-.9,4.1-.9,5.5s.5,4.2,1.4,7.1l-.2.2h-.5c-1,0-1.6-.9-2-2.8-.4-1.5-.6-3-.6-4.5.3-4.6.7-6.9,1.1-6.9h.9Z"/>
      <path class="st3" d="M163.4,131.1l.8.3c0,.7-.2,1.7-.6,3v.9c0,.8.3,1.6,1,2.2v.7c-.2,0-.5,0-.7,0-.5,0-1.1-.5-1.9-1.6l-.2-.9v-.3c0,0-.2,0-.2,0-1.7,1.5-2.9,2.3-3.7,2.4-.5,0-.8-.2-.9-.5v-.6c.5-3.6,2.6-5.5,6.4-5.6ZM158.5,136l.6-.4c1.9-1.5,3-2.6,3.3-3.3h-.1c-2.2.8-3.5,2-3.8,3.8Z"/>
      <path class="st3" d="M170.1,130.8h.3c.1,0,.2.1.2.3-.4,2-1.3,4.1-2.8,6.2l-.8.4h-.1c-1.5-1.6-2.3-3.3-2.3-5.2h.3c.5-.1.9.6,1.1,2.1.4.9.7,1.3.9,1.4.6-.3,1.5-1.9,2.7-4.7l.5-.4Z"/>
      <path class="st3" d="M171.1,124.1h.5c.7,0,1.1.4,1.1,1.1v.5c-.1.3-.4.5-.9.5s-.7-.4-1.1-1.1c.1-.6.3-.9.5-.9ZM171.1,131.3h.7c.2,0,.4.4.6,1.1v2.2c-.1.7.1,1.5.7,2.3v.3l-.4.5h-.4c-1,0-1.6-1-1.6-3.1v-1.2c0-1.3.1-2,.4-2Z"/>
      <path class="st3" d="M173.5,131.2h.4c.4.4.7.8.7,1.2v.5c-.1,0,0,2.3,0,2.3h.1c.9-2,1.6-3.1,2.3-3.1s1.1,1.2,1.5,3.6c.3.8.7,1.2,1.2,1.2h.5c0-.1.4.3.4.3v.5c0,.3-.4.5-1.2.6h-.4c-.5-.3-1-.8-1.4-1.5-.3-.5-.5-1.3-.8-2.6-.1,0-.4.5-.8,1.4-.9,1.4-1.5,2.2-2,2.2s-.8-.8-.9-2.3v-3.8l.3-.4Z"/>
    </g>
  </g>
  <g>
    <path class="st2" d="M41.3,36.8l-3.6-11.6h-3.5v-1.1h18.8v1.1h-3.6l9,28.6,7.3-28.6h-6.1v-1.1h12.1v1.1h-4l-11.1,41.8h-5.4l-9-27.3-7.9,27.3h-5.3L13.9,25.2h-2.8v-1.1h19.7v1.1h-4.2l9.9,29,5-17.4Z"/>
    <path class="st2" d="M84,37c10.2,0,15,4.8,15,14.6s-4.6,15.4-15.4,15.4-15.3-5.5-15.3-14.9,5.9-15.1,15.7-15.1h0ZM87.4,49.4c0-6.5-.2-11.3-3.6-11.3s-3.9,4.7-3.9,11.6v4.7c0,7,.1,11.6,3.8,11.6s3.6-3.6,3.6-11.4c0,0,0-5.1,0-5.1Z"/>
    <path class="st2" d="M116.9,37c10.2,0,15,4.8,15,14.6s-4.6,15.4-15.4,15.4-15.3-5.5-15.3-14.9,5.9-15.1,15.7-15.1h0ZM120.3,49.4c0-6.5-.2-11.3-3.6-11.3s-3.9,4.7-3.9,11.6v4.7c0,7,.1,11.6,3.8,11.6s3.6-3.6,3.6-11.4c0,0,0-5.1,0-5.1Z"/>
    <path class="st2" d="M153.5,62.2c-1.3,3-3.6,4.8-8.4,4.8-6.7,0-10.9-4.8-10.9-15s4.2-15.1,12-15.1,5.9,1.1,7,3v-17.9h-3.7v-1.1h15.1v44.3h3v1.1h-13.4l-.7-4.2h0ZM153.4,58.2v-13.2c0-3.3-1.3-6.2-3.9-6.2s-3.6,3.6-3.6,12v3.2c0,8.5.7,10.5,3.3,10.5s4.2-1.7,4.2-6.2h0Z"/>
    <path class="st2" d="M19.8,71.8v1.2h-3.3v40.1h3.3v1.2H1.3v-1.2h3.3v-40.1H1.3v-1.2s18.5,0,18.5,0Z"/>
    <path class="st2" d="M36.6,85.4v5.6c1-3,3-6.2,9-6.2s9.4,2.8,9.4,10.1v18.2h3.4v1.1h-17.1v-1.1h2.5v-19.7c0-5.1-.7-5.8-2.2-5.8-2.5,0-4.9,3.8-4.9,8.7v16.7h2.6v1.1h-17.2v-1.1h3.3v-26.6h-3.3v-1.1h14.6Z"/>
    <path class="st2" d="M61.9,86.4h-3.3v-1.1h3.3v-7.8l11.3-2.8v10.6h7.9v1.1h-7.9v20.4c0,3.6.5,5.5,2.7,5.5s4.7-2.7,5.3-6.8h1c-.5,4.8-2.5,9.2-9.9,9.2s-10.3-1.8-10.3-9.3v-19.1h0Z"/>
    <path class="st2" d="M98.6,84.8c9.5,0,13.6,4.8,13.2,13.8h-17.1v2.4c0,7.1,1.3,12,7.1,12s7.5-2.8,8.8-7.5l1.1.2c-1.4,5.2-4.5,9.2-13.1,9.2s-15.6-6.2-15.6-14.9,7.1-15.1,15.5-15.1ZM101,97.3v-3c0-6.3-.5-8.5-3-8.5s-3.3,2.1-3.3,8.5v3h6.2Z"/>
    <path class="st2" d="M128.5,96.9v16.2h4.3v1.1h-18.9v-1.1h3.3v-26.6h-3.3v-1.1h14.6v5.8c1.1-4.3,4.5-6.4,8.1-6.4s6.4,1.9,6.4,6.5-1.8,5.8-5.1,5.8-6-2.5-4.7-6.8h2.2c1.2-2.5,0-3.1-1.3-3.1-2.9,0-5.6,4.4-5.6,9.8h0Z"/>
    <path class="st2" d="M158.5,85.4v27.7h3.4v1.1h-18v-1.1h3.3v-26.6h-3.6v-1.1h14.8,0ZM153,71.9c3.8,0,6,1.9,6,5.6s-1.8,5.7-6.1,5.7-6.1-3.1-6.1-5.6,1.6-5.6,6.2-5.6Z"/>
    <path class="st2" d="M179.2,84.8c10.2,0,15,4.8,15,14.6s-4.6,15.4-15.4,15.4-15.3-5.4-15.3-14.9,5.9-15.1,15.7-15.1h0ZM182.6,97.1c0-6.5-.2-11.3-3.6-11.3s-3.9,4.7-3.9,11.6v4.7c0,7,.1,11.6,3.8,11.6s3.6-3.6,3.6-11.4c0,0,0-5.1,0-5.1Z"/>
    <path class="st2" d="M210.5,96.9v16.2h4.3v1.1h-18.9v-1.1h3.3v-26.6h-3.3v-1.1h14.6v5.8c1.1-4.3,4.5-6.4,8.1-6.4s6.4,1.9,6.4,6.5-1.8,5.8-5.1,5.8-6-2.5-4.7-6.8h2.2c1.2-2.5,0-3.1-1.3-3.1-2.9,0-5.6,4.4-5.6,9.8h0Z"/>
    <path class="st2" d="M226.6,103.9h.7c2.2,7.4,5.9,9.5,10.9,9.5s6.2-1.6,6.2-3.9-3-3.3-7.6-4.6c-4.8-1.3-10.2-3.2-10.2-9.9s4.2-10.2,10.6-10.2,4.5.7,6.1,1.4c.7.3,1,.5,1.7.5s1.3-.5,2.1-2h.7v9.3h-.7c-2.2-5.6-5.3-7.9-9.6-7.9s-5.6,1.6-5.6,3.5c0,2.8,3.6,3.4,7.6,4.5,4.8,1.3,10.1,3.2,10.1,10.3s-4.5,10.3-11.3,10.3-5-.6-7.3-1.8c-.4-.2-.9-.5-1.1-.5-.8,0-1.6.5-2.6,2.2h-.7v-10.8h0Z"/>
  </g>
  <g>
    <path class="st0" d="M247.8,28.7h0c2.2.7,5.3-1,6.9-.7-.9.7-2.5,1.3-4.6,1.8,7,1.7,6.9-2.6,9.5-4.2-5.3-2.3-9.3-1.3-11.8,3.1Z"/>
    <path class="st0" d="M254.1,31.7c.9,2.1,4.3,3.2,5.2,4.6h0c-1.1-.2-2.6-1-4.4-2.2,3.5,6.3,6.5,3.3,9.5,4.2-1.9-5.5-5.3-7.8-10.3-6.7Z"/>
    <path class="st0" d="M253.8,19.9h0c-.3.4-.9.8-1.7,1.2,3,0,2.5-1.8,3.4-2.7-2.4-.4-3.9.4-4.5,2.5,1,0,2-1,2.7-1h0Z"/>
    <path class="st0" d="M235.5,31.5c-3.3-1.5-5.8-.8-7.4,2,1.3.5,3.3-.7,4.3-.5-.6.4-1.5.8-2.8,1.1,4.4,1.1,4.2-1.6,5.9-2.6Z"/>
    <path class="st0" d="M238.4,25.8c-3.3-1.5-5.8-.8-7.4,2,1.3.5,3.3-.7,4.3-.5-.6.4-1.5.8-2.8,1.1,4.4,1.1,4.3-1.6,5.9-2.6Z"/>
    <path class="st0" d="M236,16.5h0c-.3.8-1.1,1.8-2.3,3,5.3-1.6,3.5-4.4,4.6-6.5-4.4.5-6.6,2.8-6.5,6.7,1.7-.4,3-2.7,4.2-3.2Z"/>
    <path class="st0" d="M236.9,7.3s0,0,0,0h0s0,0,0,0c0,.7-.5,1.7-1.1,2.8,3.8-2.5,1.7-4.2,2.1-6.1-3.3,1.4-4.5,3.7-3.6,6.7,1.3-.7,1.8-2.9,2.6-3.4Z"/>
    <path class="st0" d="M241.5,21h0s0,0,0,0c0,.7-.4,1.7-1.1,2.9,3.8-2.5,1.7-4.2,2.1-6.1-3.3,1.4-4.5,3.7-3.6,6.7,1.3-.7,1.7-2.9,2.6-3.4Z"/>
    <path class="st0" d="M245.7,22.1h0c1.3-.7,1.8-2.9,2.6-3.4,0,.7-.5,1.7-1.1,2.9,3.8-2.5,1.7-4.2,2.1-6.1-3.3,1.4-4.5,3.7-3.6,6.7Z"/>
    <path class="st0" d="M245,12.6c0,.5,0,1.3-.4,2.2,2.3-2.3.6-3.3.6-4.7-2.2,1.5-2.7,3.4-1.5,5.4.8-.7.8-2.3,1.3-2.9Z"/>
    <path class="st0" d="M252.8,59h0c1,2.1,4.5,3,5.4,4.4-1.1-.2-2.6-.8-4.5-2,3.8,6.2,6.7,3,9.7,3.8-2.1-5.4-5.6-7.5-10.6-6.2Z"/>
    <path class="st0" d="M199.1,50.6c.2-3-1.3-4.8-4.7-5.4.8,1.7-.7,3.7,3.2,5.2h0c-.8-1-1.4-1.7-1.6-2.3h0s0,0,0,0c.9.4,1.8,2.3,3.1,2.6Z"/>
    <polygon class="st0" points="237.1 44.8 237.1 44.8 237.1 44.8 237.1 44.8"/>
    <path class="st0" d="M245.4,44.3c-3.2-2.3-6-2.1-8.3.5,1.4.8,3.7,0,4.7.4-.7.3-1.8.5-3.3.6,4.4,2.1,4.9-.8,6.9-1.5Z"/>
    <path class="st0" d="M251.9,34.8c-5.3-2.4-9.3-1.3-11.8,3.1h0c2.2.7,5.3-1.1,6.9-.7-.9.7-2.5,1.3-4.6,1.8,7,1.7,6.9-2.6,9.5-4.2Z"/>
    <path class="st0" d="M254.1,50.2c2.3-.2,4.4-3,6-3.4h0c-.6,1-1.8,2.2-3.5,3.5,7.1-1.2,5.3-5.1,7.1-7.6-5.8,0-9,2.4-9.7,7.5Z"/>
    <path class="st0" d="M192.4,59.2c-1.3-3.2-3.8-4.3-7.7-3.3,1.6,1.3,1.1,4.2,6,3.8-1.4-.6-2.3-1.1-2.9-1.7h0c1.1,0,3,1.5,4.6,1.2Z"/>
    <path class="st0" d="M188.1,70.3h0c0,0,.2,0,.3-.1,0,0-.2,0-.3,0h0Z"/>
    <polygon class="st0" points="249.8 69.6 249.8 69.6 249.8 69.6 249.8 69.6"/>
    <path class="st0" d="M249.8,69.6c.7,2.2,4,3.6,4.7,5.1-1.1-.3-2.5-1.2-4.2-2.6,2.8,6.6,6.2,4,9,5.1-1.3-5.7-4.5-8.2-9.6-7.6Z"/>
    <path class="st0" d="M238.9,68.4c.7,2.2,4,3.6,4.7,5.1-1.1-.3-2.5-1.2-4.2-2.6,2.8,6.6,6.2,3.9,9,5.1-1.3-5.7-4.5-8.2-9.6-7.6Z"/>
    <polygon class="st0" points="238.9 68.4 238.9 68.4 238.9 68.4 238.9 68.4"/>
    <path class="st0" d="M230.4,14.3c.5-.9,0-2.5.2-3.2h0c.2.4.4,1.2.5,2.2,1.3-3-.7-3.3-1.2-4.6-1.4,2.2-1.3,4.1.5,5.6Z"/>
    <polygon class="st0" points="230.4 14.3 230.4 14.3 230.4 14.3 230.4 14.3"/>
    <path class="st0" d="M245.3,59.6c-1.1.5-2.6.8-4.8.8,6.5,3.1,7.2-1.2,10.2-2.2-4.7-3.4-8.8-3.1-12.2.7h0c2,1.2,5.3,0,6.8.7,0,0,0,0,0,0h0s0,0,0,0Z"/>
    <path class="st0" d="M236.5,72.6v-4.8c5.2-1.8,12.2-1.6,21,.4-3.2-4-10.2-5.8-21-5.4v-8c.8-.4,1.6-.8,2.4-1.1,10.7-3.4,16.9-7.6,18.6-12.5-7.3,5.4-15.1,7.8-23.2,7.1,4.5-11,9.8-19.3,16.1-24.8-8.4,4.8-15.3,12.7-20.6,23.8l-3.5-2.9h0c.8-.8,1.4-2.1,2.1-2.4-.2.7-.6,1.6-1.4,2.7,4-2,2.2-4,2.9-5.8-2.9.9-4.4,2.4-4.5,4.7l-1.2-1h0c1.5-6.6,4-13.3,7.6-20.1h0c-4.2,1.9-7.8,7.3-10.8,16.4-6.4-7.9-9.9-14.6-10.4-19.9-2,6.1-.6,12.6,4.2,19.4,0,0,0,0,0,0l-3.9,3.1h0s0,0,0,0c-.2-.2-.4-.4-.5-.6-.2.5-.3.9-.5,1.4,0,0,0,0,0,0l-3.7,3h0s0,0,0,0c-2.2-1.9-4.7-3.6-7.5-5.3,1.2-9.5-.5-17-5-22.4,2.5,10.7,2.6,17.6.4,20.4-4.5-2.3-7.5-5.8-8.9-10.6-.9,4.8,1.5,9.2,7.2,13.4,2.7,1.6,5.8,4.3,9.2,8.1,0,0,0,0,0,0l-3.1,2.6h0s0,0,0,0c-1,0-2.1,0-3.2.2-5.3.1-10.3-1.2-15.2-4,2.2,4.7,8,7.8,17.1,9.2,0,0,0,0,0,0v1.1s0,0,0,0c-.2,0-.5-.1-.8-.2.5,1.1,0,2.3.8,3.5,0,0,0,0,0,0v2.1s0,0,0,0c-4.8-1.6-9.4-2.4-13.9-2.5,5.1.8,9.5,3.3,13.3,7.5-2.9,0-5.6.7-7.9,1.9,3.2-.6,6-.9,8.5-.9,0,0,0,0,0,0v7.2s0,0,0,0c-.2.5-.3,1.2-.4,1.8.1,0,.3-.1.4-.2,0,0,0,0,0,0h0c0,1.1.8,1.9,1.7,1.9s1.7-.8,1.7-1.7v-24.1l2.2-1.8,1-.8,4.9-3.9,1.3-1.1,2.3-1.8h.1c0-.1,1.1-1,1.1-1l3.3-2.7s0,0,0,0h0s6.6,5.3,6.6,5.3c0,0,0,0,0,0l5,4.1,4.7,3.9v16.9h0v1.3h0v1s0,.8,0,.8v4.1h0c0,1,.8,1.7,1.7,1.7s1.7-.8,1.7-1.7v-1.8c.6,0,1.3,0,1.9.4-.3-1.9-.9-3.3-1.9-4.3Z"/>
    <path class="st0" d="M256.3,53.5c-3.2-2.3-6-2.2-8.3.5,1.4.8,3.7,0,4.7.5-.7.3-1.8.5-3.3.6,4.5,2.1,4.9-.8,6.9-1.5Z"/>
    <path class="st0" d="M208.8,35.5c1-5.3-2.2-5-3.5-7-1.6,4.1-.7,7,2.7,8.8.5-1.7-1-3.9-.8-5.2.6.7,1.1,1.8,1.5,3.4Z"/>
    <path class="st0" d="M205.8,6.3s0,0,0,0h0s0,0,0,0c.2.9.3,2.1,0,3.7,3.1-4.5,0-5.6-.5-7.9-3.1,3.2-3.4,6.2-.9,9.3,1.1-1.4.6-4,1.3-5.1Z"/>
    <path class="st0" d="M192.6,14c-.8-1.1-1.3-1.9-1.5-2.6.9.5,1.7,2.5,3,3,.5-3.1-1-5.1-4.5-6,.6,1.8-1.1,3.8,3,5.7Z"/>
    <path class="st0" d="M198.2,7.4h0c.2.9.3,2.1.1,3.8,3-4.6-.1-5.6-.6-7.9-3,3.2-3.3,6.3-.7,9.3,1.1-1.4.6-4.1,1.2-5.2Z"/>
    <path class="st0" d="M196.9,20.2c1.6-.8,2.2-3.4,3.3-4.1h0c-.1.9-.6,2.1-1.5,3.5,4.6-2.9,2.2-5.1,2.8-7.4-4.1,1.6-5.7,4.3-4.6,8.1Z"/>
    <path class="st0" d="M204.6,39.4c.8-3.9-1.6-3.7-2.5-5.1-1.2,3-.5,5.1,2,6.4.4-1.2-.7-2.9-.6-3.8h0c.4.5.8,1.3,1.1,2.5Z"/>
    <path class="st0" d="M200.2,26.7c1.6-.8,2.2-3.4,3.3-4.1h0c-.1.9-.6,2-1.5,3.5,4.6-2.9,2.2-5.1,2.8-7.4-4.1,1.6-5.7,4.3-4.6,8.1Z"/>
    <polygon class="st0" points="206.9 18.5 206.9 18.5 206.9 18.6 206.9 18.5"/>
    <path class="st0" d="M206.9,18.5c.9-1.1.5-3.2,1-4,.2.7.2,1.6,0,2.9,2.4-3.5,0-4.3-.4-6.1-2.4,2.5-2.7,4.8-.7,7.2Z"/>
    <path class="st0" d="M178.2,41.7c-2.3-.2-4-.5-5-1.1,1.6-.6,5.2.7,7.3-.4-3.4-4.2-7.7-4.6-12.8-1.2,3,1.2,3.6,5.7,10.6,2.7Z"/>
    <path class="st0" d="M257.5,68.1s0,0,0,0c0,0,0,0,0,0h0Z"/>
    <path class="st0" d="M187.2,18.5h0c-.9-1.2-1.5-2.2-1.7-3,1.1.5,2,2.9,3.5,3.5.6-3.6-1.2-6-5.2-7,.8,2.1-1.2,4.4,3.4,6.6Z"/>
    <path class="st0" d="M181,25.2c-.8-1.1-1.3-1.9-1.5-2.6h0c.9.5,1.7,2.5,3,3,.5-3.1-1-5.1-4.5-6,.6,1.8-1.1,3.8,2.9,5.6Z"/>
    <polygon class="st0" points="181 25.2 181 25.2 181 25.2 181 25.2"/>
    <path class="st0" d="M180.6,33.1h0c-2-1.2-3.3-2.3-4-3.3,1.7.2,4.3,3,6.7,2.9-1.1-5.3-4.8-7.6-10.9-6.9,2.1,2.5.6,6.7,8.2,7.3Z"/>
    <path class="st0" d="M222.4,6.2h0c.6,1.6-.6,5,.5,7.1,4-3.4,4.4-7.6,1-12.5-1.1,3-5.5,3.6-2.5,10.4.1-2.2.4-3.9,1-5Z"/>
    <path class="st0" d="M214.7,8.3h0c.4-1.6-1.1-3.7-1-4.9,0,0,0,0,0,0h0s0,0,0,0c.6.6,1.1,1.7,1.6,3.2.7-5.2-2.4-4.8-3.8-6.6-1.3,4-.2,6.8,3.2,8.3Z"/>
    <path class="st0" d="M183.5,73h0c-3.5-.1-5.5,1.7-6.1,5.7,1.9-.9,4.3.7,5.9-4-1.1,1-2,1.7-2.7,2,.4-1.1,2.5-2.2,2.9-3.7Z"/>
    <path class="st0" d="M212.7,12.1c.3.4.6,1,.9,1.9.6-3.1-1.2-2.9-2-4-.9,2.3-.4,4,1.6,5,.3-1-.6-2.2-.5-2.9h0Z"/>
    <path class="st0" d="M219,30.3c1-5.3-2.2-5-3.5-7-1.6,4.1-.7,7,2.7,8.8.5-1.7-1-3.9-.8-5.1.6.7,1.1,1.8,1.5,3.4Z"/>
    <path class="st0" d="M225.7,20.8c.8-.7.8-2.3,1.3-2.9,0,.5,0,1.3-.4,2.2,2.3-2.3.6-3.3.6-4.7-2.2,1.5-2.7,3.4-1.5,5.4Z"/>
    <path class="st0" d="M223.5,23.7c0-5.3-2.9-8.3-8.8-9,1.5,2.8-.9,6.5,6.2,8.7-1.6-1.6-2.6-2.9-3.1-4,1.6.6,3.4,3.8,5.7,4.3Z"/>
    <path class="st0" d="M194.7,74.7s0,0,0,0c0,0,0,0,0,0h0Z"/>
    <path class="st0" d="M185.6,76.7c2.8-.2,5,3,9.2-2-1.8.7-3.2,1.1-4.2,1.1,0,0,0,0,0,0h0s0,0,0,0c1-1.1,4.2-1.4,5.4-3.1-4.2-1.9-7.7-.5-10.3,4Z"/>
    <path class="st0" d="M179.3,35.4c1.4,1.2,1,3.8,5.4,3.4-1.2-.5-2.1-1-2.6-1.5h0s0,0,0,0c1,0,2.7,1.3,4.1,1-1.1-2.9-3.5-3.9-6.9-2.9Z"/>
    <polygon class="st0" points="179.3 35.5 179.3 35.4 179.3 35.4 179.3 35.5"/>
    <path class="st0" d="M191.6,47.2c-1.6-4.1-4.9-5.5-9.7-4.2,2.1,1.7,1.4,5.4,7.6,4.8-1.7-.7-2.9-1.4-3.7-2.1h0s0,0,0,0c1.4,0,3.8,1.9,5.8,1.5Z"/>
    <path class="st0" d="M181.8,43s0,0,0,0c0,0,0,0,0,0h0Z"/>
    <path class="st0" d="M193.1,33.7c.5-3.1-1-5.1-4.5-6,.6,1.8-1.1,3.8,2.9,5.6-.8-1.1-1.3-1.9-1.5-2.6h0c.9.4,1.7,2.5,3,3Z"/>
    <polygon class="st0" points="188.6 27.7 188.6 27.7 188.6 27.7 188.6 27.7"/>
    <path class="st0" d="M190.6,26.3c-.8-1.1-1.3-1.9-1.5-2.6h0c.9.5,1.7,2.5,3,3,.5-3.1-1-5.1-4.5-6,.6,1.8-1.1,3.8,2.9,5.7Z"/>
    <path class="st0" d="M171.5,65.3h0c3,1.2,3.6,5.7,10.6,2.7-2.3-.2-4-.5-5-1.1,1.6-.6,5.1.7,7.3-.4-3.4-4.2-7.7-4.6-12.8-1.2Z"/>
    <path class="st0" d="M178.6,57.4c-2.3-.2-4-.5-5-1.1,1.6-.6,5.1.7,7.3-.4-3.4-4.2-7.7-4.6-12.8-1.2,3,1.2,3.6,5.7,10.6,2.7Z"/>
  </g>
  <path class="st4" d="M223.5,64.2s0,0,0,0v-1.7c0-1.3-.4-2.5-1-3.5,0,0,0,0,0,0-1.1-1.8-3-3-5.2-3.2,0,0,0,0,0,0,0,0,0,0,0,0-.2,0-.3,0-.5,0-.4,0-.7,0-1.1,0-.4,0-.7.1-1,.3,0,0,0,0,0,0-1.6.6-3,1.8-3.8,3.3-.5.9-.7,2-.7,3.1v18.2h13.4v-6.8s0,0,0,0v-9.8Z"/>
</svg>